# xmcd
#
# Track frame offsets:
#	150
#	16500
#	37115
#	51857
#	70337
#	89542
#	106195
#	126760
#	147967
#	168220
#	197402
#	217462
#	235642
#	260232
#	281252
#	307932
#
# Disc length: 4795 seconds
#
# Revision: 0
# Processed by: cddbd v1.5.1PL2 Copyright (c) Steve Scherf et al.
# Submitted via: dBpowerAMP V4.0
#
DISCID=e112b910
DTITLE=Various Artist - Absolute Love, disc 2
DYEAR=2002
DGENRE=Easy Listening
TTITLE0=Queen - Love of My Life
TTITLE1=Eurythmics - Miracle of Love
TTITLE2=R.E.M. - The One I Love
TTITLE3=Dido - Here With Me
TTITLE4=Roxy Music - Avalon
TTITLE5=Westlife - If I Let You Go
TTITLE6=Texas - Put Your Arms Around Me
TTITLE7=Diana Krall -  The Look of Love
TTITLE8=Neneh Cherry - Woman
TTITLE9=Tears for Fears - Woman in Chains
TTITLE10=Culture Club - Do You Really Want to Hurt Me
TTITLE11=Eva Dahlgren - Vem Tänder Stjärnorna
TTITLE12=George Michael - You Have Been Loved
TTITLE13=Marc Almond Feat. Gene Pitney - Something Gotten Hold of My Heart
TTITLE14=Flying Pickets - Only You
TTITLE15=DATA
EXTD=Absolute Love, disc 2
EXTT0=
EXTT1=
EXTT2=
EXTT3=
EXTT4=
EXTT5=
EXTT6=
EXTT7=
EXTT8=
EXTT9=
EXTT10=
EXTT11=
EXTT12=
EXTT13=
EXTT14=
EXTT15=
PLAYORDER=
